<?xml version="1.0" standalone="no"?>
<!DOCTYPE svg PUBLIC "-//W3C//DTD SVG 20010904//EN"
 "http://www.w3.org/TR/2001/REC-SVG-20010904/DTD/svg10.dtd">
<svg version="1.0" xmlns="http://www.w3.org/2000/svg"
 width="1080.000000pt" height="1080.000000pt" viewBox="0 0 1080.000000 1080.000000"
 preserveAspectRatio="xMidYMid meet">
<metadata>
Created by potrace 1.11, written by Peter Selinger 2001-2013
</metadata>
<g transform="translate(0.000000,1080.000000) scale(0.100000,-0.100000)"
fill="#000000" stroke="none">
<path d="M6831 9579 c-41 -10 -77 -21 -79 -24 -16 -16 22 -17 137 -6 70 7 140
9 154 6 33 -9 36 8 5 29 -30 22 -124 19 -217 -5z"/>
<path d="M6520 9530 c0 -5 5 -10 10 -10 6 0 10 5 10 10 0 6 -4 10 -10 10 -5 0
-10 -4 -10 -10z"/>
<path d="M5745 9500 c-3 -5 1 -10 10 -10 9 0 13 5 10 10 -3 6 -8 10 -10 10 -2
0 -7 -4 -10 -10z"/>
<path d="M5370 9482 c-25 -1 -70 -8 -100 -14 l-55 -11 55 -18 c54 -18 56 -18
108 1 29 11 68 20 87 20 19 0 37 5 40 10 3 6 3 10 -2 11 -38 3 -96 4 -133 1z"/>
<path d="M5010 9406 c0 -8 5 -18 10 -21 6 -3 10 3 10 14 0 12 -4 21 -10 21 -5
0 -10 -6 -10 -14z"/>
<path d="M4254 9246 c-3 -8 1 -26 9 -41 l14 -27 17 27 c10 15 15 33 12 41 -7
18 -45 18 -52 0z"/>
<path d="M4810 9226 c-20 -19 -131 -37 -147 -24 -18 15 -67 5 -71 -14 -3 -14
9 -16 93 -16 75 0 98 3 102 14 3 9 12 13 22 9 33 -13 179 -17 186 -5 11 18 -2
24 -46 21 -23 -1 -46 2 -52 7 -23 19 -72 23 -87 8z"/>
<path d="M2667 9224 c-16 -16 -6 -35 16 -32 12 2 22 10 22 18 0 16 -26 25 -38
14z"/>
<path d="M2436 9203 c-3 -3 -6 -21 -6 -39 0 -24 5 -34 21 -39 28 -9 43 8 35
39 -6 26 -38 51 -50 39z"/>
<path d="M4412 9173 c3 -24 7 -28 32 -26 16 1 34 7 39 12 16 16 -12 41 -45 41
-26 0 -29 -3 -26 -27z"/>
<path d="M3715 9169 c-16 -6 -70 -12 -120 -14 -115 -4 -259 -21 -310 -36 -25
-7 -80 -9 -145 -6 -94 4 -107 3 -126 -15 -19 -17 -28 -18 -80 -10 -90 14 -205
4 -227 -19 -10 -11 -29 -19 -42 -19 -14 0 -25 -4 -25 -10 0 -17 48 -22 97 -11
26 6 152 16 278 21 364 16 438 21 474 32 19 6 96 12 171 13 154 3 183 11 178
53 -3 25 -7 27 -48 29 -25 1 -58 -3 -75 -8z"/>
<path d="M3905 9157 c-8 -4 -15 -16 -15 -27 0 -15 10 -19 63 -22 37 -3 76 1
96 9 18 7 44 13 57 13 21 0 45 18 27 22 -61 11 -211 15 -228 5z"/>
<path d="M2643 9145 c-13 -10 -15 -17 -7 -25 16 -16 58 -8 62 11 4 22 -32 31
-55 14z"/>
<path d="M1977 9111 c-14 -17 -28 -40 -32 -51 -4 -11 -15 -20 -27 -20 -24 0
-92 -57 -75 -62 17 -6 170 -2 209 6 18 3 101 7 183 10 151 4 285 21 285 36 0
22 -309 32 -347 12 -30 -16 -83 -15 -83 1 0 8 -9 22 -19 31 -11 10 -21 28 -23
40 -5 33 -41 32 -71 -3z"/>
<path d="M4552 8888 c-17 -17 -15 -48 3 -48 10 0 15 10 15 30 0 34 -1 35 -18
18z"/>
<path d="M4387 8853 c-4 -3 -7 -23 -7 -42 0 -20 -7 -47 -16 -59 -31 -44 6 -92
71 -92 27 0 32 9 14 27 -18 18 -1 33 37 33 46 0 54 23 20 55 -14 13 -26 31
-26 39 0 9 -16 23 -36 31 -41 17 -48 18 -57 8z"/>
<path d="M4700 8750 c-8 -5 -36 -14 -62 -22 -54 -14 -60 -24 -22 -39 19 -7 37
-6 61 2 26 8 38 8 46 0 16 -16 47 -13 54 5 3 8 -4 25 -17 40 -25 25 -36 28
-60 14z"/>
<path d="M4865 8710 c-3 -5 -2 -10 4 -10 5 0 13 5 16 10 3 6 2 10 -4 10 -5 0
-13 -4 -16 -10z"/>
<path d="M4332 8629 c-13 -5 -27 -21 -33 -36 -13 -38 -61 -68 -139 -87 -72
-18 -127 -59 -100 -76 10 -6 20 -4 31 6 8 7 28 14 42 14 26 0 27 -3 27 -49 0
-31 5 -53 15 -61 20 -16 19 -44 -1 -61 -10 -8 -14 -23 -12 -40 4 -25 1 -28
-39 -34 -36 -5 -48 -13 -67 -44 -15 -24 -24 -51 -23 -75 1 -31 -6 -44 -36 -74
-20 -20 -45 -47 -54 -59 -17 -21 -23 -22 -101 -15 -84 8 -123 -1 -108 -26 6
-9 81 -28 98 -24 4 1 19 -3 33 -8 20 -8 25 -16 25 -44 0 -44 -13 -48 -74 -24
-27 10 -59 18 -70 17 -40 -3 -46 1 -46 31 0 25 -4 30 -24 30 -14 0 -38 11 -54
25 -17 14 -37 25 -47 25 -12 0 -16 8 -13 32 3 29 10 36 68 65 78 39 90 40 128
8 30 -25 62 -25 62 -1 0 7 11 22 25 34 14 12 25 26 25 32 0 5 10 10 22 10 20
0 19 2 -11 32 -29 28 -35 30 -53 19 -56 -35 -12 36 48 76 19 13 32 28 29 33
-6 10 15 34 58 65 20 14 26 26 21 38 -8 23 -16 22 -51 -10 -16 -16 -43 -38
-59 -51 -98 -75 -125 -95 -175 -131 -30 -22 -70 -57 -88 -78 -100 -117 -119
-136 -149 -150 -18 -8 -42 -30 -54 -47 -12 -17 -30 -39 -40 -49 -11 -11 -18
-32 -18 -56 0 -22 -6 -44 -15 -51 -8 -7 -15 -19 -15 -26 0 -7 -9 -28 -20 -46
-11 -18 -20 -40 -20 -48 0 -9 -9 -23 -20 -33 -11 -9 -20 -26 -20 -36 0 -11 -4
-22 -9 -25 -4 -3 -11 -18 -15 -33 -3 -17 -19 -36 -38 -48 -26 -16 -34 -29 -40
-64 -4 -24 -16 -54 -27 -65 -10 -12 -26 -35 -35 -53 -9 -18 -25 -37 -35 -43
-46 -24 -60 -138 -20 -163 27 -17 68 0 75 31 3 15 9 36 13 47 4 12 2 30 -5 44
-16 31 -4 55 38 81 17 10 38 30 47 43 9 14 29 35 45 48 24 19 35 21 87 15 49
-5 62 -3 74 12 47 57 51 60 100 65 28 3 42 3 33 0 -28 -7 -22 -48 9 -68 l27
-18 -28 -23 c-18 -16 -40 -24 -65 -24 -69 0 -82 -43 -25 -86 l36 -28 19 25
c10 13 19 29 19 35 0 18 33 41 68 49 25 5 37 16 54 48 30 61 115 155 159 178
34 17 39 24 39 54 0 24 5 35 15 35 21 0 152 116 170 150 8 16 24 31 35 35 34
11 44 41 20 65 -43 43 -17 92 54 103 74 12 76 59 3 67 -72 9 -76 23 -12 44 62
19 75 16 75 -20 0 -19 5 -24 25 -24 35 0 32 -22 -8 -67 -37 -42 -48 -65 -39
-79 12 -17 70 -36 90 -30 11 4 23 2 27 -4 4 -6 12 -7 24 0 13 6 20 26 24 66 6
61 41 140 69 158 14 8 27 6 55 -8 21 -10 44 -21 51 -25 24 -11 16 -26 -26 -45
-44 -20 -61 -48 -42 -71 18 -21 163 -9 225 20 54 25 160 40 240 34 14 -1 33 5
43 13 9 9 29 18 44 22 15 3 35 17 44 31 19 28 41 31 128 14 67 -14 101 -3 116
36 8 21 16 25 49 25 22 0 47 3 56 7 15 5 16 1 10 -35 -7 -41 -6 -42 22 -42 15
0 42 -4 60 -9 23 -7 49 -5 92 7 l61 16 30 -32 c33 -37 84 -43 125 -16 15 10
34 14 49 10 14 -3 28 -2 31 4 9 15 35 12 35 -3 0 -42 70 -58 85 -19 7 19 -26
52 -54 52 -9 0 -25 7 -35 15 -11 8 -34 15 -52 15 -27 0 -34 5 -43 32 -9 25 -8
36 4 54 46 71 -26 172 -92 129 -12 -9 -23 -22 -23 -29 0 -7 -6 -19 -14 -25
-17 -14 -39 9 -30 33 7 18 3 19 -67 16 -26 -1 -50 4 -54 10 -3 6 5 24 20 42
33 40 29 57 -20 82 -28 15 -48 36 -66 71 -16 31 -32 48 -40 46 -46 -13 -66
-10 -93 13 -16 15 -47 28 -75 32 -54 9 -190 8 -199 -1 -16 -16 32 -25 123 -23
118 2 153 -11 182 -69 10 -21 30 -44 46 -51 15 -7 27 -21 27 -30 -1 -16 -2
-16 -14 1 -10 12 -28 17 -69 17 -31 0 -59 -4 -62 -10 -3 -5 -18 -10 -33 -10
-14 0 -46 -7 -70 -17 -34 -13 -44 -22 -49 -45 -5 -24 -10 -29 -32 -26 -18 2
-27 10 -29 25 -6 39 -27 48 -75 29 -67 -25 -92 -22 -108 17 -7 17 -19 36 -26
40 -15 9 -18 47 -3 47 6 0 23 11 37 25 25 22 29 23 44 9 14 -12 22 -13 39 -4
28 15 22 40 -15 61 -26 14 -44 15 -124 8 -100 -10 -118 -18 -152 -73 l-18 -29
-7 26 c-6 28 -40 44 -68 34 -7 -3 -18 -1 -24 5 -8 8 -16 6 -27 -6 -9 -9 -25
-16 -36 -16 -10 0 -19 -4 -19 -10 0 -14 -47 -13 -56 1 -4 7 -24 9 -55 5 l-48
-7 10 30 c15 44 9 60 -19 50z m341 -123 c20 7 29 -22 30 -99 l2 -61 -54 -27
c-30 -15 -90 -38 -132 -50 -70 -20 -79 -25 -84 -51 -9 -37 -21 -35 -39 5 -25
57 -68 92 -130 106 l-57 13 4 39 c6 54 40 89 88 89 44 0 51 -13 42 -75 l-6
-44 47 -23 47 -23 19 25 c11 14 20 32 20 41 0 9 11 20 24 23 13 3 31 9 39 12
11 4 16 -2 19 -18 6 -42 68 -30 68 13 0 11 -9 35 -20 56 -14 26 -16 41 -9 55
9 17 12 17 39 3 16 -8 35 -12 43 -9z m591 -192 c20 -8 21 -30 2 -37 -9 -4 -13
-15 -10 -29 4 -20 3 -21 -7 -7 -10 13 -17 14 -41 5 -25 -9 -32 -8 -43 8 -28
38 44 81 99 60z m-283 -37 c-8 -8 -11 -7 -11 4 0 20 13 34 18 19 3 -7 -1 -17
-7 -23z m-681 -68 c0 -5 -7 -9 -15 -9 -15 0 -20 12 -9 23 8 8 24 -1 24 -14z
m-985 -729 c-6 -20 -9 -21 -23 -7 -13 13 -13 19 -2 32 17 21 34 4 25 -25z"/>
<path d="M4446 8623 c-9 -22 7 -36 33 -28 25 8 28 30 5 39 -24 9 -31 7 -38
-11z"/>
<path d="M6232 8428 c3 -35 22 -48 32 -22 9 24 -2 54 -20 54 -11 0 -14 -9 -12
-32z"/>
<path d="M3904 8216 c-8 -22 3 -33 18 -18 9 9 9 15 0 24 -9 9 -13 7 -18 -6z"/>
<path d="M3978 8223 c-16 -2 -28 -8 -28 -12 0 -17 14 -19 41 -5 27 14 39 26
22 23 -5 -1 -20 -4 -35 -6z"/>
<path d="M6144 8216 c-11 -8 -41 -17 -67 -21 -47 -7 -47 -8 -41 -40 3 -18 1
-50 -5 -71 -12 -43 -4 -54 42 -54 32 0 62 -14 94 -43 30 -27 91 -28 110 -1 20
28 13 88 -11 92 -10 2 -23 -3 -28 -12 -12 -21 -31 -20 -52 3 -17 19 -18 61 -5
135 5 25 -11 30 -37 12z"/>
<path d="M5770 8001 c0 -18 52 -71 70 -71 21 0 19 23 -6 55 -29 38 -64 47 -64
16z"/>
<path d="M6454 7915 c-9 -23 5 -35 42 -35 38 0 47 22 15 40 -28 14 -51 13 -57
-5z"/>
<path d="M6587 7873 c-12 -11 -7 -33 7 -33 12 0 26 20 26 36 0 7 -26 5 -33 -3z"/>
<path d="M4116 7650 c-52 -62 -26 -99 31 -46 31 29 36 38 27 52 -17 28 -30 27
-58 -6z"/>
<path d="M7044 7413 c3 -8 6 -17 6 -19 0 -2 13 -4 28 -4 32 0 46 -21 58 -87 4
-22 22 -57 45 -85 22 -26 39 -51 39 -56 0 -5 8 -17 19 -26 10 -9 21 -30 25
-47 3 -16 23 -53 45 -82 27 -36 41 -64 43 -92 5 -66 28 -58 124 39 67 69 84
92 83 114 -1 15 6 47 14 72 23 61 22 67 -13 75 -21 5 -40 20 -57 46 -14 21
-30 39 -36 39 -6 0 -29 8 -51 19 -23 10 -60 26 -84 36 -24 10 -47 27 -53 36
-10 20 -38 26 -157 33 -71 4 -83 2 -78 -11z"/>
<path d="M7495 7410 c-3 -5 -1 -10 4 -10 6 0 11 5 11 10 0 6 -2 10 -4 10 -3 0
-8 -4 -11 -10z"/>
<path d="M3256 7261 c-3 -5 3 -20 14 -34 11 -14 20 -37 20 -52 l0 -27 78 7
c42 4 80 9 85 12 21 12 -1 33 -73 66 -80 37 -114 45 -124 28z"/>
<path d="M3095 6924 c-20 -21 -19 -44 3 -44 21 0 42 18 42 36 0 19 -28 24 -45
8z"/>
<path d="M2770 6812 c0 -10 -9 -27 -20 -37 -11 -10 -20 -24 -20 -31 0 -6 -14
-41 -32 -75 -32 -63 -32 -66 -33 -214 -1 -89 -6 -161 -13 -178 -7 -16 -12 -40
-12 -54 0 -25 1 -25 19 -9 10 10 25 16 33 15 33 -4 40 1 33 24 -4 12 -11 74
-15 137 -7 101 -5 120 11 158 10 23 25 42 33 42 21 0 20 17 0 28 -15 8 -15 12
-1 38 53 99 66 165 35 172 -12 2 -18 -3 -18 -16z"/>
<path d="M7428 6794 c-11 -10 3 -34 19 -34 8 0 13 7 11 17 -3 18 -20 27 -30
17z"/>
<path d="M3032 6648 c-17 -17 -15 -55 3 -62 31 -11 54 15 55 62 0 15 -42 16
-58 0z"/>
<path d="M4350 6510 c-7 -4 -10 -18 -9 -31 2 -13 0 -30 -4 -36 -6 -9 -2 -13
12 -13 11 0 23 5 26 10 4 6 37 10 73 9 126 -2 192 33 115 62 -16 6 -40 5 -68
-2 -29 -7 -58 -8 -88 -1 -25 5 -51 6 -57 2z"/>
<path d="M2947 6504 c-14 -14 -7 -35 11 -32 9 2 17 10 17 17 0 16 -18 25 -28
15z"/>
<path d="M4130 6489 c-41 -9 -58 -25 -34 -33 27 -8 70 -8 142 0 51 6 62 10 62
26 0 16 -7 18 -69 16 -38 -2 -83 -6 -101 -9z"/>
<path d="M3875 6445 c-16 -8 -52 -14 -80 -15 -27 0 -90 -7 -138 -16 -49 -8
-94 -13 -100 -11 -7 2 -20 0 -29 -5 -16 -8 -18 -25 -15 -167 3 -179 8 -195 62
-185 22 4 36 1 43 -8 49 -59 71 -82 78 -76 12 12 13 198 2 256 -15 81 -7 96
59 123 32 12 72 31 88 41 17 10 36 18 43 18 7 0 37 10 65 22 52 23 52 23 22
29 -46 10 -67 9 -100 -6z"/>
<path d="M3167 6413 c-4 -3 -7 -16 -7 -28 0 -13 -7 -28 -15 -35 -13 -11 -12
-16 10 -42 14 -16 23 -34 19 -39 -8 -13 6 -50 17 -44 5 4 9 49 9 101 0 72 -3
94 -13 94 -8 0 -17 -3 -20 -7z"/>
<path d="M5472 6368 c-13 -13 -15 -70 -6 -141 l7 -46 96 2 c108 1 159 -10 175
-37 6 -10 19 -28 29 -40 31 -36 85 -113 102 -145 19 -38 51 -44 34 -7 -8 16
-8 29 0 43 16 30 -5 85 -40 105 -16 10 -29 25 -29 34 0 13 3 14 15 4 18 -15
40 -3 26 14 -6 8 -7 27 0 55 9 39 7 45 -13 65 -13 12 -28 31 -34 42 -10 16
-15 17 -32 7 -16 -10 -23 -9 -36 6 -22 24 -72 34 -98 20 -16 -9 -19 -17 -14
-44 6 -31 4 -36 -23 -49 -33 -18 -83 -12 -102 10 -7 8 -9 31 -6 54 4 32 1 42
-13 50 -23 12 -24 12 -38 -2z m378 -131 c0 -7 -7 -22 -15 -33 -12 -16 -16 -17
-24 -5 -6 10 -6 22 0 33 11 21 39 24 39 5z"/>
<path d="M5220 6350 c19 -13 30 -13 30 0 0 6 -10 10 -22 10 -19 0 -20 -2 -8
-10z"/>
<path d="M5276 6351 c-3 -5 5 -16 18 -25 21 -13 26 -13 36 -1 10 12 7 17 -15
25 -32 12 -32 12 -39 1z"/>
<path d="M3014 6265 c-7 -17 12 -45 31 -45 22 0 28 33 9 47 -23 17 -33 16 -40
-2z"/>
<path d="M7495 6239 c-4 -6 -5 -12 -2 -15 7 -7 37 7 37 17 0 13 -27 11 -35 -2z"/>
<path d="M2783 6168 c-11 -13 -26 -33 -32 -45 -15 -30 -30 -29 -77 3 l-38 26
-29 -32 c-25 -28 -28 -39 -24 -72 3 -22 15 -51 28 -64 23 -25 23 -21 -1 -182
-9 -61 -8 -88 6 -160 9 -48 23 -99 30 -114 8 -14 17 -59 20 -98 l7 -72 31 5
c17 2 45 -2 63 -9 18 -8 66 -14 107 -14 67 0 75 2 81 21 5 15 9 18 15 9 4 -7
16 -9 29 -5 15 4 28 -1 46 -19 21 -22 24 -29 15 -46 -15 -28 -3 -65 15 -50 7
6 15 21 18 33 3 12 14 56 25 97 10 41 22 97 26 124 3 27 15 64 25 81 10 18 22
52 26 76 4 24 19 58 33 74 22 26 23 30 8 33 -31 6 -74 -18 -81 -46 -9 -35 -23
-52 -46 -52 -28 0 -31 15 -9 43 l21 26 -28 18 c-15 9 -30 18 -31 19 -10 6 13
47 38 72 21 19 34 47 46 92 9 36 22 72 30 81 8 8 14 20 14 26 0 6 6 16 14 22
24 20 27 51 5 51 -10 0 -19 -6 -19 -14 0 -19 -27 -46 -46 -46 -10 0 -14 12
-14 38 0 51 -24 84 -58 80 -23 -3 -30 -12 -49 -68 -25 -71 -23 -159 3 -181 19
-15 18 -40 -1 -33 -8 4 -17 -1 -21 -9 -8 -23 -60 -38 -89 -27 -31 12 -65 66
-65 103 0 16 -10 38 -25 53 -30 30 -31 48 -5 81 23 29 26 63 8 81 -17 17 -21
15 -45 -10z m155 -412 c-15 -11 -13 -14 17 -24 18 -7 36 -20 39 -29 7 -18 -10
-43 -29 -43 -7 0 -23 -8 -36 -19 -31 -25 -50 -6 -48 46 1 21 -2 48 -6 61 -7
21 -5 22 36 22 38 -1 42 -2 27 -14z m-47 -180 c1 -6 1 -18 0 -28 -1 -9 3 -19
9 -23 5 -3 10 -19 10 -36 0 -22 -5 -29 -19 -29 -22 0 -51 68 -51 118 0 30 1
31 25 20 14 -6 26 -16 26 -22z"/>
<path d="M7663 6178 c-4 -7 -6 -25 -4 -40 3 -32 -26 -65 -66 -74 -16 -4 -44
-15 -63 -24 -19 -10 -52 -20 -72 -24 -35 -6 -36 -8 -27 -30 7 -14 26 -28 50
-35 36 -11 39 -14 39 -50 0 -50 7 -55 42 -26 34 29 50 31 68 10 15 -18 51 -16
57 2 3 7 -14 30 -36 52 -23 22 -41 45 -41 50 0 5 16 15 35 22 l35 13 0 83 c0
83 -2 93 -17 71z"/>
<path d="M4349 6087 c-61 -38 -81 -62 -77 -93 2 -23 8 -29 28 -29 20 0 25 5
26 25 0 38 10 47 42 42 22 -3 33 2 46 19 39 57 2 78 -65 36z"/>
<path d="M4177 6030 c-14 -11 -39 -20 -56 -20 -29 0 -42 -9 -78 -54 -7 -8 -13
-23 -13 -32 0 -13 6 -15 31 -10 17 3 35 6 40 6 4 0 11 10 15 23 9 31 34 57 54
57 21 0 55 36 42 44 -5 3 -21 -3 -35 -14z"/>
<path d="M5250 6021 c0 -17 5 -33 10 -36 6 -4 10 8 10 29 0 20 -4 36 -10 36
-5 0 -10 -13 -10 -29z"/>
<path d="M6515 6020 c-8 -13 5 -13 25 0 13 8 13 10 -2 10 -9 0 -20 -4 -23 -10z"/>
<path d="M4527 5967 c-3 -8 -23 -17 -44 -20 -41 -7 -90 -48 -78 -66 10 -17 50
-13 78 9 14 11 35 20 46 20 15 0 21 6 21 23 0 31 -15 54 -23 34z"/>
<path d="M5222 5854 c-5 -8 -19 -21 -32 -27 -13 -7 -28 -25 -33 -42 -6 -16
-25 -48 -43 -71 -36 -43 -35 -54 2 -54 17 0 24 7 29 30 4 19 17 36 33 44 53
28 108 136 69 136 -9 0 -20 -7 -25 -16z"/>
<path d="M6475 5850 c3 -5 13 -10 21 -10 8 0 14 5 14 10 0 6 -9 10 -21 10 -11
0 -17 -4 -14 -10z"/>
<path d="M5958 5819 c-8 -23 7 -92 21 -97 11 -4 13 5 9 43 -6 48 -22 78 -30
54z"/>
<path d="M7643 5723 c-15 -25 -17 -92 -3 -113 16 -25 21 -5 18 66 -3 61 -4 66
-15 47z"/>
<path d="M7490 5680 c0 -22 5 -40 10 -40 6 0 10 18 10 40 0 22 -4 40 -10 40
-5 0 -10 -18 -10 -40z"/>
<path d="M6013 5703 c-28 -5 -28 -5 3 -63 22 -41 32 -49 78 -63 29 -10 65 -17
80 -17 15 0 54 -9 87 -20 34 -12 64 -19 67 -16 8 9 -42 45 -63 46 -11 0 -29 6
-40 14 -11 7 -31 17 -45 21 -41 13 -96 54 -108 80 -11 25 -16 26 -59 18z"/>
<path d="M5063 5643 c-18 -6 -16 -43 1 -43 22 0 39 26 24 37 -7 6 -19 8 -25 6z"/>
<path d="M3831 5632 c-7 -5 -9 -12 -5 -14 21 -12 143 -31 159 -24 17 6 17 8 3
22 -18 19 -136 30 -157 16z"/>
<path d="M7683 5606 c-27 -29 -31 -39 -24 -63 5 -15 14 -27 21 -25 8 2 10 -3
5 -15 -15 -33 -17 -103 -5 -136 26 -68 63 -142 73 -149 12 -7 67 38 67 54 0 4
-8 8 -19 8 -26 0 -36 17 -50 84 -9 50 -9 63 4 82 18 28 19 74 3 109 -9 21 -9
31 0 46 31 49 -30 53 -75 5z m35 -43 c-4 -22 -22 -20 -26 1 -2 10 3 16 13 16
10 0 15 -7 13 -17z"/>
<path d="M4960 5615 c0 -19 11 -19 36 0 18 14 18 14 -8 15 -18 0 -28 -5 -28
-15z"/>
<path d="M4070 5589 c0 -23 53 -29 262 -29 242 1 475 13 489 27 4 4 -163 8
-371 9 -209 0 -380 -3 -380 -7z"/>
<path d="M6485 5500 c3 -5 21 -10 40 -10 19 0 37 5 40 10 4 6 -12 10 -40 10
-28 0 -44 -4 -40 -10z"/>
<path d="M6595 5500 c-3 -5 1 -10 10 -10 9 0 13 5 10 10 -3 6 -8 10 -10 10 -2
0 -7 -4 -10 -10z"/>
<path d="M7842 5408 c-17 -17 -15 -36 9 -69 36 -51 58 -29 39 40 -11 42 -26
51 -48 29z"/>
<path d="M7870 5272 c-18 -14 -22 -25 -16 -45 8 -32 35 -36 59 -9 22 24 21 35
-2 56 -17 15 -20 15 -41 -2z"/>
<path d="M2990 5255 c0 -8 9 -15 20 -15 11 0 20 7 20 15 0 8 -9 15 -20 15 -11
0 -20 -7 -20 -15z"/>
<path d="M5318 5231 c-49 -7 -72 -26 -84 -68 -13 -47 -3 -51 110 -49 59 1 110
6 115 12 5 5 12 21 16 35 6 22 1 30 -27 47 -42 26 -72 31 -130 23z"/>
<path d="M3053 5190 c-3 -11 -12 -20 -19 -20 -17 0 -18 -30 -2 -65 13 -29 38
-34 38 -6 0 10 9 29 20 43 17 23 18 27 4 46 -19 27 -34 28 -41 2z"/>
<path d="M5852 5169 c-28 -11 -28 -20 3 -49 14 -13 25 -28 25 -34 0 -16 45
-56 63 -56 8 0 20 7 27 15 15 18 5 89 -15 105 -22 18 -78 28 -103 19z"/>
<path d="M5165 4413 c-31 -8 -38 -19 -23 -42 14 -23 31 -23 96 5 29 12 32 16
22 29 -12 14 -53 18 -95 8z"/>
<path d="M5045 4333 c-11 -2 -29 -16 -41 -29 -11 -14 -36 -32 -54 -42 -48 -24
-50 -42 -5 -42 19 0 47 -7 60 -16 18 -12 38 -14 77 -10 80 10 99 10 151 1 46
-8 47 -7 47 18 0 37 17 42 32 10 18 -37 56 -44 253 -48 129 -2 165 0 184 12
22 14 25 13 47 -10 22 -24 31 -25 169 -32 94 -5 150 -4 156 2 6 6 9 26 7 44
-3 30 -7 34 -38 39 -20 4 -50 17 -68 30 -29 22 -41 24 -110 21 -62 -2 -81 1
-91 13 -26 31 -101 6 -87 -29 12 -33 -109 -27 -153 7 -30 23 -36 23 -70 -3
-25 -18 -33 -19 -67 -10 -21 6 -55 11 -74 11 -19 1 -46 7 -60 15 -14 8 -50 14
-81 15 -43 0 -60 5 -74 20 -18 19 -60 25 -110 13z"/>
<path d="M5530 2766 c0 -10 9 -16 21 -16 24 0 21 23 -4 28 -10 2 -17 -3 -17
-12z"/>
<path d="M2931 2692 c-59 -17 -121 -69 -121 -103 0 -16 3 -18 19 -9 11 5 30
10 42 10 12 0 30 7 39 15 11 10 27 13 53 8 32 -5 37 -9 37 -33 0 -16 3 -35 6
-44 9 -24 50 -19 73 9 17 23 21 24 29 9 5 -9 27 -20 48 -23 45 -7 56 -31 28
-62 -23 -26 -6 -46 25 -30 12 7 21 16 21 21 0 26 20 5 32 -32 14 -47 54 -72
81 -50 17 15 7 110 -14 126 -8 6 -20 40 -27 76 -14 80 -47 115 -117 125 -25 4
-49 5 -52 1 -3 -3 1 -20 10 -37 8 -18 13 -38 10 -46 -7 -18 -33 -17 -33 2 0 8
-13 21 -29 29 -16 9 -31 24 -34 36 -6 25 -46 25 -126 2z"/>
<path d="M2891 2551 c-15 -27 -14 -71 2 -71 26 1 48 28 45 57 -4 34 -32 43
-47 14z"/>
<path d="M2767 2533 c-10 -10 -8 -83 2 -83 12 0 21 26 21 61 0 28 -9 37 -23
22z"/>
<path d="M2729 2384 c-6 -16 -15 -37 -20 -46 -12 -24 -11 -48 1 -48 6 0 13 8
16 18 3 9 13 32 22 49 13 25 14 35 5 44 -9 9 -15 5 -24 -17z"/>
<path d="M7767 2403 c-14 -13 -6 -33 13 -33 13 0 20 7 20 20 0 19 -20 27 -33
13z"/>
<path d="M7124 2215 c-22 -54 -16 -90 16 -90 24 0 25 3 25 59 0 71 -18 85 -41
31z"/>
<path d="M2640 2221 c0 -12 -8 -21 -22 -23 -12 -2 -23 -9 -26 -17 -3 -9 1 -11
16 -7 11 4 23 2 27 -4 4 -7 11 -8 18 -2 7 5 29 12 50 16 24 5 37 12 37 23 0
12 -7 14 -34 10 -25 -4 -36 -1 -40 9 -8 21 -26 17 -26 -5z"/>
<path d="M3910 1961 c-30 -4 -66 -14 -80 -22 -14 -9 -40 -19 -58 -23 -19 -3
-45 -15 -58 -25 -20 -16 -35 -19 -75 -14 -36 4 -54 2 -67 -9 -32 -29 -183 -98
-213 -98 -30 0 -35 -3 -113 -93 -39 -45 -56 -57 -90 -63 -47 -7 -109 -64 -120
-109 -4 -15 -18 -42 -30 -59 -13 -17 -27 -41 -30 -52 -4 -12 -15 -29 -26 -39
-25 -23 -84 -13 -142 24 -24 16 -65 37 -92 47 -29 12 -59 33 -75 53 -14 19
-47 57 -73 85 -27 27 -50 57 -53 66 -3 10 -14 21 -25 26 -10 5 -49 44 -85 87
-56 66 -71 78 -93 75 -25 -3 -27 -7 -25 -43 2 -64 20 -155 33 -171 7 -7 27
-14 46 -14 39 0 43 -5 51 -69 3 -30 13 -57 24 -67 12 -11 19 -31 19 -54 0 -33
4 -39 33 -50 17 -6 42 -16 55 -21 12 -5 22 -17 22 -28 0 -17 62 -102 79 -108
3 -2 15 15 25 37 11 22 23 40 27 40 4 0 16 -17 26 -37 15 -31 23 -38 44 -35
17 1 35 -6 50 -22 13 -13 45 -31 70 -39 41 -14 52 -14 93 -2 33 10 60 12 94 5
51 -9 75 -1 92 30 16 31 38 24 86 -26 44 -44 46 -45 69 -30 13 9 36 16 51 16
15 0 42 10 61 21 l34 22 34 -33 c43 -42 70 -36 60 12 -4 18 -13 43 -21 55 -8
12 -14 27 -14 32 0 6 -11 21 -25 35 -42 42 -27 81 38 102 29 10 45 32 67 91 7
19 17 30 25 27 7 -3 25 6 42 20 16 13 46 27 66 31 26 5 37 12 37 25 0 25 -25
43 -50 35 -14 -4 -20 -2 -20 9 0 9 20 20 58 31 31 9 65 18 74 21 9 3 31 -8 50
-24 18 -16 71 -50 117 -77 46 -27 94 -63 107 -80 15 -20 39 -35 71 -44 58 -17
44 -15 183 -25 92 -7 123 -13 155 -31 44 -26 217 -56 275 -49 31 4 37 1 57
-29 l21 -34 121 5 c87 3 121 2 121 -7 0 -6 -9 -11 -20 -11 -25 0 -25 -6 -1
-35 13 -18 21 -21 30 -12 6 6 11 17 11 25 0 7 15 19 34 27 25 11 38 24 46 50
6 19 27 47 46 61 19 15 34 32 34 40 0 7 9 18 20 24 24 13 26 33 4 51 -12 10
-20 10 -33 2 -14 -9 -22 -8 -35 5 -22 22 -91 42 -148 42 -52 0 -88 24 -88 59
0 24 -18 36 -46 33 -11 -2 -33 7 -48 19 -23 18 -36 21 -84 16 -37 -3 -66 0
-84 9 -61 31 -93 114 -44 114 33 0 44 20 21 37 -24 17 -40 17 -59 -2 -11 -11
-39 -15 -119 -15 -103 0 -104 0 -116 27 -9 20 -15 23 -23 15 -18 -18 -37 -14
-70 13 -44 37 -69 32 -126 -26 -41 -43 -53 -51 -74 -46 -35 9 -42 44 -18 90
11 21 20 44 20 51 0 33 -95 43 -240 27z m675 -322 c0 -8 -12 -15 -27 -17 -31
-4 -37 12 -10 27 21 13 37 9 37 -10z"/>
<path d="M7075 1420 c-12 -13 -31 -20 -55 -20 -50 0 -109 -22 -159 -58 -36
-26 -46 -29 -75 -21 -22 6 -43 6 -61 -1 -15 -6 -43 -8 -62 -4 -25 5 -39 2 -53
-11 -25 -23 -136 -22 -161 1 -13 12 -41 15 -120 14 -57 -1 -115 1 -129 5 -19
4 -31 1 -44 -14 -23 -25 -34 -26 -58 -5 -14 14 -42 17 -141 18 -88 1 -129 5
-140 15 -12 9 -32 11 -75 6 -51 -6 -60 -4 -66 11 -5 14 -15 16 -69 10 -48 -5
-68 -3 -82 9 -28 20 -129 20 -149 -1 -36 -36 -30 -119 11 -139 12 -6 43 -33
70 -59 66 -66 116 -87 233 -96 72 -6 110 -14 151 -34 31 -14 67 -26 81 -26 13
0 40 -11 58 -25 23 -17 46 -25 70 -24 37 2 94 -11 147 -32 26 -11 39 -11 66
-1 51 18 81 15 105 -13 29 -33 50 -32 94 5 36 29 39 30 80 19 l43 -11 43 48
c24 26 50 61 59 78 8 17 34 55 56 84 37 49 42 52 56 37 15 -15 14 -17 -1 -26
-26 -15 -22 -38 9 -45 21 -6 30 -2 45 20 15 19 28 26 53 26 19 0 37 -4 40 -10
3 -5 29 -10 56 -10 27 0 79 -7 114 -16 53 -13 79 -14 152 -6 l88 11 30 -30
c37 -34 68 -37 133 -10 61 25 233 35 271 15 38 -20 69 -17 76 6 3 11 10 20 15
20 5 0 15 3 23 6 8 3 24 -4 35 -16 48 -51 62 -51 143 -3 161 97 179 111 179
141 0 17 -9 37 -22 49 -28 26 -110 63 -138 63 -11 0 -32 7 -46 16 -17 12 -36
15 -64 10 -26 -4 -52 -1 -74 8 -32 13 -38 12 -81 -10 -26 -13 -64 -26 -84 -29
-20 -4 -51 -13 -69 -21 -18 -8 -42 -14 -53 -14 -11 0 -38 -10 -59 -22 -38 -22
-40 -22 -72 -6 -18 9 -54 20 -79 23 -30 5 -60 18 -89 41 -31 25 -53 34 -79 34
-20 0 -54 9 -76 20 -22 11 -49 20 -61 20 -11 0 -29 -9 -39 -20z"/>
<path d="M4426 1232 c-8 -13 73 -74 91 -68 12 5 13 9 3 21 -7 8 -20 15 -30 15
-10 0 -20 9 -23 20 -5 20 -31 28 -41 12z"/>
<path d="M5196 1153 c-7 -17 9 -33 32 -33 15 0 16 22 0 38 -16 16 -25 15 -32
-5z"/>
<path d="M3622 1050 c13 -38 43 -56 64 -39 8 6 14 15 14 20 0 18 -41 49 -64
49 -23 0 -24 -2 -14 -30z"/>
<path d="M5280 1071 c0 -5 7 -14 15 -21 8 -7 15 -16 15 -21 0 -5 11 -26 24
-47 13 -20 32 -59 42 -85 18 -50 38 -67 56 -49 6 6 0 32 -21 80 -17 39 -34 85
-38 102 -4 21 -14 35 -30 41 -31 11 -63 12 -63 0z"/>
<path d="M4786 892 c-3 -6 -1 -14 5 -17 15 -10 25 3 12 16 -7 7 -13 7 -17 1z"/>
<path d="M3895 850 c3 -5 8 -10 11 -10 2 0 4 5 4 10 0 6 -5 10 -11 10 -5 0 -7
-4 -4 -10z"/>
<path d="M3950 803 c0 -5 16 -19 35 -32 46 -31 71 -15 29 18 -26 20 -64 29
-64 14z"/>
<path d="M5427 614 c-3 -5 -8 -39 -12 -76 -6 -59 -5 -69 10 -74 26 -10 35 15
28 76 -6 58 -17 88 -26 74z"/>
<path d="M4586 562 c-12 -19 24 -42 67 -42 88 0 81 33 -9 45 -32 5 -54 3 -58
-3z"/>
<path d="M5740 427 c0 -19 64 -47 107 -47 30 0 34 2 23 14 -11 14 -45 28 -102
40 -20 5 -28 2 -28 -7z"/>
</g>
</svg>
