<!DOCTYPE svg PUBLIC "-//W3C//DTD SVG 20010904//EN" "http://www.w3.org/TR/2001/REC-SVG-20010904/DTD/svg10.dtd">
<svg version="1.0" xmlns="http://www.w3.org/2000/svg" width="1280px" height="960px" viewBox="0 0 12800 9600" preserveAspectRatio="xMidYMid meet">
<g id="layer101" fill="#f00b0b" stroke="none">
 <path d="M7291 8824 c-12 -15 -21 -29 -21 -33 0 -6 -29 -386 -66 -861 -8 -107 -23 -311 -34 -452 -11 -142 -29 -374 -40 -515 -22 -286 -35 -460 -79 -1043 -17 -217 -33 -422 -36 -455 -4 -53 -25 -322 -70 -920 -8 -104 -23 -309 -35 -455 -23 -303 -42 -554 -70 -925 -11 -143 -33 -433 -50 -645 -16 -212 -30 -397 -30 -412 0 -16 -4 -28 -9 -28 -4 0 -11 46 -15 103 -14 207 -36 521 -61 857 -14 190 -32 440 -40 555 -8 116 -24 336 -35 490 -42 578 -79 1093 -110 1545 -31 439 -30 431 -56 457 -52 52 -97 15 -192 -159 -35 -64 -69 -121 -75 -126 -7 -6 -77 -20 -157 -32 -80 -11 -160 -28 -177 -37 -39 -19 -39 -19 -182 -362 -110 -261 -117 -278 -125 -270 -2 2 -52 141 -111 309 -58 168 -113 316 -121 328 -29 44 -63 49 -274 42 -107 -3 -199 -3 -204 2 -5 4 -31 105 -57 225 -42 192 -51 221 -74 241 -65 56 -93 23 -200 -233 -48 -115 -94 -220 -102 -233 l-14 -24 -202 7 -202 7 -240 -110 c-132 -60 -279 -126 -327 -146 l-87 -38 -322 168 -322 167 -944 -7 -943 -7 -9 24 c-15 38 -70 96 -112 118 -48 24 -147 26 -192 3 -83 -42 -127 -113 -127 -204 0 -72 22 -122 76 -169 47 -42 73 -51 145 -51 87 0 157 42 205 125 10 18 51 19 941 23 l931 5 153 -80 c545 -284 512 -272 599 -232 25 11 171 77 325 146 l280 125 222 -6 c220 -6 222 -6 247 16 20 19 100 190 139 301 16 45 28 15 68 -183 6 -30 18 -66 26 -78 19 -31 78 -55 117 -48 40 7 365 10 372 3 3 -2 66 -177 140 -388 74 -211 143 -392 153 -403 11 -10 31 -19 46 -19 15 0 35 9 45 19 10 11 71 145 135 299 173 415 195 464 213 469 10 2 82 15 162 27 142 22 146 23 180 58 19 20 43 51 53 70 10 19 20 32 22 29 4 -3 24 -266 65 -853 6 -77 21 -293 35 -480 29 -393 49 -681 70 -985 8 -118 19 -273 25 -345 6 -71 21 -292 35 -490 14 -198 32 -448 40 -555 15 -210 49 -679 64 -904 9 -122 12 -141 32 -162 26 -28 55 -31 86 -9 26 18 30 36 43 215 6 74 17 225 25 335 20 262 47 618 85 1110 16 220 37 486 45 590 8 105 24 312 35 460 11 149 27 353 35 455 8 102 26 336 40 520 14 184 29 385 35 445 5 61 12 146 15 190 16 222 185 2440 191 2505 7 68 8 72 15 40 5 -19 20 -161 34 -315 14 -154 35 -374 46 -490 10 -115 26 -280 34 -365 8 -85 24 -252 35 -370 11 -118 27 -289 35 -380 21 -235 24 -249 54 -282 l27 -30 329 11 c182 6 364 11 406 11 l76 0 195 -222 c409 -468 556 -634 576 -651 24 -22 75 -25 98 -6 10 8 159 191 332 407 l314 392 191 1 c106 1 206 3 222 4 43 4 1877 7 1879 3 2 -2 13 -20 26 -42 28 -47 98 -93 155 -102 93 -14 206 48 241 132 19 44 18 136 -2 182 -58 141 -249 178 -361 70 -17 -17 -37 -44 -44 -59 -6 -16 -21 -31 -33 -33 -11 -3 -535 -7 -1164 -11 -859 -4 -1149 -9 -1169 -18 -15 -7 -152 -169 -326 -387 -165 -206 -303 -376 -307 -378 -4 -1 -173 186 -376 417 -218 249 -380 425 -396 432 -22 9 -119 9 -404 -1 -206 -6 -377 -10 -379 -8 -5 5 -25 201 -90 903 -14 149 -32 340 -40 425 -8 85 -33 349 -55 585 -22 237 -47 498 -55 580 -8 83 -22 233 -32 335 -15 166 -19 187 -39 207 -31 31 -68 29 -93 -3z"/>
 </g>

</svg>
